# xmcd CD database file generated by Grip 2.99.0
# 
# Track frame offsets:
#       150
#       18697
#       31372
#       42180
#       64610
#       81630
#       100775
#       120567
#       135512
#       155260
#       171682
#       185977
#       205909
#       221440
#       246957
#       259212
#       283280
#       294930
# 
# Disc length: 4205 seconds
# 
# Revision: 2
# Processed by: cddbd v1.4PL0 Copyright (c) Steve Scherf et al.
# Submitted via: Grip 2.99.0
# 
DISCID=17106b12
DTITLE=Junior Wells - Best of the Vanguard Years
DYEAR=1968
DGENRE=Blues
TTITLE0=Help Me (A Tribute to Sonny Boy Williamson)
TTITLE1=It Hurts Me Too (When Things Go Wrong)
TTITLE2=Messin' With The Kid
TTITLE3=Vietcong Blues
TTITLE4=All Night Long
TTITLE5=It's My Life, Baby
TTITLE6=It's So Sad To Be Lonely
TTITLE7=Country Girl
TTITLE8=Stormy Monday Blues
TTITLE9=Shake It Baby
TTITLE10=Checking On My Baby
TTITLE11=Early In The Morning
TTITLE12=(I Got A) Stomach Ache
TTITLE13=Look How Baby
TTITLE14=I'm Your Hoochie Coochie Man
TTITLE15=Slow, Slow
TTITLE16=Shotgun Blues
TTITLE17=You Know That I Know
EXTD=
EXTT0=
EXTT1=
EXTT2=
EXTT3=
EXTT4=
EXTT5=
EXTT6=
EXTT7=
EXTT8=
EXTT9=
EXTT10=
EXTT11=
EXTT12=
EXTT13=
EXTT14=
EXTT15=
EXTT16=
EXTT17=
PLAYORDER=
